{"title":"Power 2014 S03E03 I Got This On Lock 1080p WEBRip HEVC 6CH x265","uid":15475384,"size":1000120327,"categoryP":"video","categoryS":"hd___tv_shows","magnet":"?xt=urn:btih:77ad5b80510d525b403a0223c03dc4fa09f0b86f&amp;dn=Power+2014+S03E03+I+Got+This+On+Lock+1080p+WEBRip+HEVC+6CH+x265&amp;tr=udp%3A%2F%2Ftracker.leechers-paradise.org%3A6969&amp;tr=udp%3A%2F%2Fzer0day.ch%3A1337&amp;tr=udp%3A%2F%2Fopen.demonii.com%3A1337&amp;tr=udp%3A%2F%2Ftracker.coppersurfer.tk%3A6969&amp;tr=udp%3A%2F%2Fexodus.desync.com%3A6969","seeders":2,"leechers":0,"uploader":"nayhtut","files":1,"time":1470183237,"description":"[Screenshots]\r\n \nhttps://s32.postimg.org/qy0hw5gdh/Power_S03_E03_I_Got_This_On_Lock_1080p_WEBRip_HEV.jpg \nhttps://s32.postimg.org/cg3ao5p2d/Power_S03_E03_I_Got_This_On_Lock_1080p_WEBRip_HEV.jpg \nhttps://s32.postimg.org/djnf049ph/Power_S03_E03_I_Got_This_On_Lock_1080p_WEBRip_HEV.jpg\r\n   \r\n\r\nSource:  Power S03E03 I Got This On Lock 1080p NF WEBRip DD5 1 x264-NTb (3.71 GB)\r\n \r\n\r\n__--__--__--__--__--__--__--__--__--__--__--__--__--\r\n\r\n\r\nComplete name                            : Power.S03E03.I.Got.This.On.Lock.1080p.WEBRip.HEVC.DD5.1.x265.mkv\r\nFormat                                   : Matroska\r\nFormat version                           : Version 4 / Version 2\r\nFile size                                : 954 MiB\r\nDuration                                 : 58mn 39s\r\nOverall bit rate                         : 2 273 Kbps\r\nWriting application                      : Lavf57.25.100\r\nWriting library                          : Lavf57.25.100\r\n\r\nVideo\r\n\r\nID                                       : 1\r\nFormat                                   : V_MPEGH/ISO/HEVC\r\nCodec ID                                 : V_MPEGH/ISO/HEVC\r\nDuration                                 : 58mn 39s\r\nBit rate                                 : 1 844 Kbps\r\nWidth                                    : 1 920 pixels\r\nHeight                                   : 1 080 pixels\r\nDisplay aspect ratio                     : 16:9\r\nFrame rate                               : 25.000 fps\r\nBits/(Pixel*Frame)                       : 0.036\r\nStream size                              : 774 MiB (81%)\r\nWriting library                          : Lavc57.48.101 libx265\r\nLanguage                                 : English\r\nDefault                                  : Yes\r\nForced                                   : No\r\nDURATION                                 : 00:58:36.771000000\r\n\r\nAudio\r\n\r\nID                                       : 2\r\nFormat                                   : AC-3\r\nFormat/Info                              : Audio Coding 3\r\nMode extension                           : CM (complete main)\r\nFormat settings, Endianness              : Big\r\nCodec ID                                 : A_AC3\r\nDuration                                 : 58mn 39s\r\nBit rate mode                            : Constant\r\nBit rate                                 : 384 Kbps\r\nChannel(s)                               : 6 channels\r\nChannel positions                        : Front: L C R, Side: L R, LFE\r\nSampling rate                            : 48.0 KHz\r\nBit depth                                : 16 bits\r\nCompression mode                         : Lossy\r\nStream size                              : 161 MiB (17%)\r\nWriting library                          : Lavc57.24.102 ac3\r\nLanguage                                 : English\r\nDefault                                  : Yes\r\nForced                                   : No\r\nDURATION                                 : 00:58:39.615000000\r\n\r\nText\r\n\r\nID                                       : 3\r\nFormat                                   : ASS\r\nCodec ID                                 : S_TEXT/ASS\r\nCodec ID/Info                            : Advanced Sub Station Alpha\r\nCompression mode                         : Lossless\r\nWriting library                          : Lavc57.48.101 ssa\r\nLanguage                                 : English\r\nDefault                                  : No\r\nForced                                   : No\r\nDURATION                                 : 00:58:29.142000000\r\n\r\n\r\n__--__--__--__--__--__--__--__--__--__--__--__--__--\r\n\r\n\r\nIMDb: http://www.imdb.com/title/tt3281796\r\n\r\n\r\n__--__--__--__--__--__--__--__--__--__--__--__--__--\r\n\r\n\r\nAfter adding torrent with maget link,\r\n\r\nplease add this  following trackers list to the torrent for better seeds.\r\n\r\n\r\nudp://tracker.coppersurfer.tk:6969/announce\r\n\r\nudp://tracker.opentrackr.org:1337/announce\r\n \nhttp://tracker.baravik.org:6970/announce\r\n \nhttp://tracker2.wasabii.com.tw:6969/announce\r\n\r\nudp://9.rarbg.me:2710/announce\r\n\r\n\r\n__--__--__--__--__--__--__--__--__--__--__--__--__--\r\n\r\n Enjoy!","torrent":{"xt":"urn:btih:77ad5b80510d525b403a0223c03dc4fa09f0b86f","amp;dn":"Power+2014+S03E03+I+Got+This+On+Lock+1080p+WEBRip+HEVC+6CH+x265","amp;tr":["udp%3A%2F%2Ftracker.leechers-paradise.org%3A6969","udp%3A%2F%2Fzer0day.ch%3A1337","udp%3A%2F%2Fopen.demonii.com%3A1337","udp%3A%2F%2Ftracker.coppersurfer.tk%3A6969","udp%3A%2F%2Fexodus.desync.com%3A6969"],"infoHash":"77ad5b80510d525b403a0223c03dc4fa09f0b86f","infoHashBuffer":{"type":"Buffer","data":[119,173,91,128,81,13,82,91,64,58,2,35,192,61,196,250,9,240,184,111]},"announce":[],"urlList":[]}}